<?xml version="1.0" encoding="UTF-8"?> <!-- Generator: Adobe Illustrator 19.0.0, SVG Export Plug-In . SVG Version: 6.00 Build 0) --> <svg xmlns="http://www.w3.org/2000/svg" xmlns:xlink="http://www.w3.org/1999/xlink" version="1.1" id="Capa_1" x="0px" y="0px" viewBox="0 0 512 512" style="enable-background:new 0 0 512 512;" xml:space="preserve"> <g> <g> <path d="M445.231,63.177c-3.641-2.842-8.388-3.849-12.869-2.729l-15.063,3.766c-11.103,2.776-22.317,4.119-33.433,4.118 C338.281,68.328,294.514,45.728,268.48,6.68C265.699,2.506,261.016,0,256,0s-9.699,2.506-12.48,6.68 c-32.382,48.57-92.19,71.692-148.819,57.533l-15.063-3.766c-4.481-1.12-9.229-0.113-12.869,2.729C63.128,66.02,61,70.381,61,75 v202.213c0,85.184,48.114,163.115,124.377,201.246l63.915,31.958c2.111,1.056,4.409,1.583,6.708,1.583s4.597-0.528,6.708-1.583 l63.915-31.958C402.814,440.364,451,362.477,451,277.213V75C451,70.381,448.872,66.02,445.231,63.177z M421,277.213 c0,74.337-41.304,141.168-107.793,174.413L256,480.229l-57.207-28.604C132.304,418.381,91,351.55,91,277.213V94.17 c61.077,13.861,124.677-7.6,165-54.414c40.321,46.814,103.922,68.275,165,54.414V277.213z"></path> </g> </g> <g> <g> <path d="M264.971,94.978c-5.322-3.971-12.619-3.971-17.941,0C243.108,97.904,151,167.662,151,257 c0,77.213,68.792,139.791,90,157.246V437c0,8.284,6.716,15,15,15s15-6.716,15-15v-22.754c21.208-17.456,90-80.033,90-157.246 C361,167.662,268.892,97.904,264.971,94.978z M271,373.607v-50.395l25.606-25.606c5.858-5.858,5.858-15.355,0-21.213 c-5.857-5.858-15.355-5.858-21.213,0L271,280.787v-47.574l25.606-25.606c5.858-5.858,5.858-15.355,0-21.213 c-5.857-5.858-15.355-5.858-21.213,0L256,205.787l-19.394-19.393c-5.857-5.858-15.355-5.858-21.213,0 c-5.858,5.858-5.858,15.355,0,21.213L241,233.213v47.574l-4.394-4.394c-5.857-5.858-15.355-5.858-21.213,0 c-5.858,5.858-5.858,15.355,0,21.213L241,323.213v50.458C216.18,348.98,181,305.437,181,257 c0-59.446,53.366-111.805,75.015-130.596C277.683,145.157,331,197.371,331,257C331,305.266,295.82,348.859,271,373.607z"></path> </g> </g> <g> </g> <g> </g> <g> </g> <g> </g> <g> </g> <g> </g> <g> </g> <g> </g> <g> </g> <g> </g> <g> </g> <g> </g> <g> </g> <g> </g> <g> </g> </svg> 