<?xml version="1.0" encoding="UTF-8"?> <svg xmlns="http://www.w3.org/2000/svg" id="Layer_1" height="512px" viewBox="0 0 256 256" width="512px" class=""><g><circle cx="128" cy="128" fill="#f9a7a7" r="120" data-original="#F9A7A7" class="" style="fill:#FFFFFF" data-old_color="#f9a7a7"></circle><circle cx="128" cy="128" fill="#a4c9ff" r="95" data-original="#A4C9FF" class="" style="fill:#FFFFFF" data-old_color="#a4c9ff"></circle><path d="m128 250c-67.271 0-122-54.729-122-122s54.729-122 122-122 122 54.729 122 122-54.729 122-122 122zm0-240c-65.065 0-118 52.935-118 118s52.935 118 118 118 118-52.935 118-118-52.935-118-118-118z" fill="#3762cc" data-original="#3762CC" class="" style="fill:#000000" data-old_color="#3762cc"></path><path d="m185.721 52.601-133.12 133.12c5.093 6.637 11.04 12.584 17.678 17.678l133.12-133.12c-5.093-6.637-11.041-12.584-17.678-17.678z" fill="#f9a7a7" data-original="#F9A7A7" class="" style="fill:#FFFFFF" data-old_color="#f9a7a7"></path><path d="m52.993 182.913c-15.709-21.399-22.503-49.731-14.825-79.481 7.317-28.348 36.913-57.945 65.261-65.263 29.751-7.68 58.084-.886 79.484 14.824.8.587 1.901.515 2.603-.186.861-.861.77-2.297-.211-3.018-16.835-12.369-37.788-19.445-60.388-18.74-50.92 1.588-92.279 42.946-93.868 93.866-.706 22.601 6.371 43.555 18.74 60.39.721.981 2.157 1.072 3.018.211.701-.701.773-1.803.186-2.603z" fill="#3762cc" data-original="#3762CC" class="" style="fill:#000000" data-old_color="#3762cc"></path><path d="m203.194 70.484c-.701.701-.773 1.803-.186 2.603 15.709 21.399 22.503 49.731 14.825 79.481-7.317 28.348-36.913 57.945-65.261 65.263-29.751 7.68-58.084.886-79.484-14.824-.8-.587-1.902-.515-2.603.186-.861.861-.77 2.297.211 3.018 16.835 12.369 37.788 19.445 60.388 18.74 50.92-1.588 92.279-42.946 93.868-93.866.706-22.601-6.371-43.555-18.74-60.39-.721-.981-2.157-1.072-3.018-.211z" fill="#3762cc" data-original="#3762CC" class="" style="fill:#000000" data-old_color="#3762cc"></path><path d="m173.975 69.803v41.956h9v-41.956c0-11.548-9.395-20.942-20.943-20.942s-20.943 9.395-20.943 20.942v100.354c0 2.27-1.847 4.116-4.116 4.116h-3.973v9h3.973c7.232 0 13.116-5.884 13.116-13.116v-100.354c0-6.585 5.357-11.942 11.943-11.942s11.943 5.357 11.943 11.942z" fill="#ffea92" data-original="#FFEA92" class="" style="fill:#FFFFFF" data-old_color="#ffea92"></path><path d="m172.013 116.067h12.924v20.583h-12.924z" fill="#e0ebfc" data-original="#E0EBFC" class="active-path" style="fill:#000000" data-old_color="#e0ebfc"></path><path d="m178.475 136.65h-6.462l1.675 7.898h4.787 4.787l1.675-7.898z" fill="#e0ebfc" data-original="#E0EBFC" class="active-path" style="fill:#000000" data-old_color="#e0ebfc"></path><path d="m186.014 120.135h-15.078c-.793 0-1.436-.643-1.436-1.436v-5.505c0-.793.643-1.436 1.436-1.436h15.078c.793 0 1.436.643 1.436 1.436v5.505c0 .793-.643 1.436-1.436 1.436z" fill="#6bdddd" data-original="#6BDDDD" class="" style="fill:#000000" data-old_color="#6bdddd"></path><path d="m113.7 64.13h-28.003c-1.586 0-2.872-1.286-2.872-2.872v-8.137c0-1.586 1.286-2.872 2.872-2.872h28.003c1.586 0 2.872 1.286 2.872 2.872v8.137c0 1.586-1.286 2.872-2.872 2.872z" fill="#4671c6" data-original="#4671C6" class="" style="fill:#FFFFFF" data-old_color="#4671c6"></path><path d="m89.698 64.13h20v7.18h-20z" fill="#e0ebfc" data-original="#E0EBFC" class="active-path" style="fill:#000000" data-old_color="#e0ebfc"></path><path d="m113.7 66.13h-28.003c-2.687 0-4.872-2.186-4.872-4.872v-8.138c0-2.687 2.186-4.872 4.872-4.872h28.003c2.687 0 4.872 2.186 4.872 4.872v8.138c0 2.686-2.186 4.872-4.872 4.872zm-28.003-13.882c-.481 0-.872.392-.872.872v8.138c0 .48.391.872.872.872h28.003c.481 0 .872-.392.872-.872v-8.138c0-.48-.391-.872-.872-.872z" fill="#3762cc" data-original="#3762CC" class="" style="fill:#000000" data-old_color="#3762cc"></path><path d="m109.698 73.311h-20c-1.104 0-2-.896-2-2v-7.181c0-1.104.896-2 2-2h20c1.104 0 2 .896 2 2v7.181c0 1.104-.895 2-2 2zm-18-4h16v-3.181h-16z" fill="#3762cc" data-original="#3762CC" class="" style="fill:#000000" data-old_color="#3762cc"></path><path d="m124.374 196.724h-49.198c-4.764 0-8.626-3.862-8.626-8.626v-96.66c0-11.116 9.011-20.128 20.128-20.128h26.195c11.116 0 20.128 9.011 20.128 20.128v96.659c-.001 4.764-3.863 8.627-8.627 8.627z" fill="#4671c6" data-original="#4671C6" class="" style="fill:#FFFFFF" data-old_color="#4671c6"></path><path d="m66.55 106.613h66.416v56.963h-66.416z" fill="#e0ebfc" data-original="#E0EBFC" class="active-path" style="fill:#000000" data-old_color="#e0ebfc"></path><circle cx="99.818" cy="135.094" fill="#f9a7a7" r="22.4" data-original="#F9A7A7" class="" style="fill:#FFFFFF" data-old_color="#f9a7a7"></circle><circle cx="99.818" cy="135.094" fill="#4671c6" r="17.28" data-original="#4671C6" class="" style="fill:#FFFFFF" data-old_color="#4671c6"></circle><path d="m111.646 118.661-28.26 28.26c1.018 1.711 2.276 3.261 3.728 4.605l29.138-29.138c-1.346-1.451-2.896-2.709-4.606-3.727z" fill="#f9a7a7" data-original="#F9A7A7" class="" style="fill:#FFFFFF" data-old_color="#f9a7a7"></path><path d="m99.965 147.259s-.584-12.843 10.362-19.192c0 0-5.108 16.71-2.919 19.192z" fill="#6bdddd" data-original="#6BDDDD" class="" style="fill:#000000" data-old_color="#6bdddd"></path><path d="m99.671 147.259s.584-12.843-10.362-19.192c0 0 5.108 16.71 2.919 19.192z" fill="#6bdddd" data-original="#6BDDDD" class="" style="fill:#000000" data-old_color="#6bdddd"></path><path d="m99.676 121.719c-4.064 4.067-4.07 25.54-4.07 25.54h4.07 4.07s-.006-21.473-4.07-25.54z" fill="#6bdddd" data-original="#6BDDDD" class="" style="fill:#000000" data-old_color="#6bdddd"></path><g fill="#3762cc"><path d="m124.374 198.724h-49.198c-5.859 0-10.626-4.767-10.626-10.626v-96.66c0-12.201 9.927-22.127 22.128-22.127h26.195c12.201 0 22.127 9.926 22.127 22.127v96.66c0 5.859-4.767 10.626-10.626 10.626zm-37.696-125.413c-9.996 0-18.128 8.132-18.128 18.127v96.66c0 3.653 2.973 6.626 6.626 6.626h49.198c3.654 0 6.626-2.973 6.626-6.626v-96.66c0-9.995-8.132-18.127-18.127-18.127z" data-original="#3762CC" class="" style="fill:#000000" data-old_color="#3762CC"></path><path d="m133 165.575h-66.45c-1.104 0-2-.896-2-2v-56.963c0-1.104.896-2 2-2h66.45c1.104 0 2 .896 2 2v56.963c0 1.105-.896 2-2 2zm-64.45-4h62.45v-52.963h-62.45z" data-original="#3762CC" class="" style="fill:#000000" data-old_color="#3762CC"></path><path d="m186.014 122.136h-15.079c-1.895 0-3.436-1.542-3.436-3.437v-5.505c0-1.895 1.542-3.436 3.436-3.436h15.079c1.895 0 3.436 1.541 3.436 3.436v5.505c0 1.895-1.541 3.437-3.436 3.437zm-14.514-4h13.951v-4.377h-13.951z" data-original="#3762CC" class="" style="fill:#000000" data-old_color="#3762CC"></path><path d="m136.973 185.273h-3.973c-1.104 0-2-.896-2-2v-9c0-1.104.896-2 2-2h3.973c1.167 0 2.116-.949 2.116-2.116v-100.354c0-12.65 10.292-22.942 22.943-22.942s22.943 10.292 22.943 22.942v39.956h1.039c1.895 0 3.436 1.541 3.436 3.436v5.505c0 1.575-1.065 2.905-2.513 3.31v14.641c0 .14-.015.278-.043.415l-1.675 7.898c-.196.924-1.012 1.585-1.957 1.585h-9.574c-.945 0-1.76-.661-1.957-1.585l-1.675-7.898c-.029-.137-.043-.275-.043-.415v-14.641c-1.448-.404-2.513-1.734-2.513-3.31v-5.505c0-1.895 1.542-3.436 3.436-3.436h1.04v-39.956c0-5.482-4.46-9.942-9.943-9.942-5.482 0-9.943 4.46-9.943 9.942v100.354c-.001 8.335-6.782 15.116-15.117 15.116zm-1.973-4h1.973c6.129 0 11.116-4.986 11.116-11.116v-100.354c0-7.688 6.255-13.942 13.943-13.942s13.943 6.255 13.943 13.942v41.956c0 1.104-.896 2-2 2h-2.475v4.376h.513c1.104 0 2 .896 2 2v16.305l1.295 6.108h6.333l1.295-6.108v-16.305c0-1.104.896-2 2-2h.513v-4.376h-2.475c-1.104 0-2-.896-2-2v-41.956c0-10.445-8.498-18.942-18.943-18.942s-18.943 8.497-18.943 18.942v100.354c0 3.372-2.744 6.116-6.116 6.116h-1.972zm51.014-67.514h.01z" data-original="#3762CC" class="" style="fill:#000000" data-old_color="#3762CC"></path></g></g></svg> 