<?xml version="1.0" encoding="UTF-8"?> <svg xmlns="http://www.w3.org/2000/svg" viewBox="0 0 512 512" width="512" height="512"><g id="Insecticide"><g id="Outline"><path d="M472,112H384V72a8,8,0,0,0-8-8H360V16h32a8,8,0,0,0,0-16H280a8,8,0,0,0,0,16h32V64H296a8,8,0,0,0-8,8v40H239.545A72.1,72.1,0,0,0,168,48H152a64.072,64.072,0,0,0-64,64v24a8,8,0,0,0,16,0V112a48.054,48.054,0,0,1,48-48h16a56.078,56.078,0,0,1,55.419,48H200a40.045,40.045,0,0,0-40,40V472a40.045,40.045,0,0,0,40,40H472a40.045,40.045,0,0,0,40-40V336a8,8,0,0,0-16,0V472a24.028,24.028,0,0,1-24,24H200a24.027,24.027,0,0,1-24-24V152a24.027,24.027,0,0,1,24-24H472a24.028,24.028,0,0,1,24,24V272a8,8,0,0,0,16,0V152A40.045,40.045,0,0,0,472,112ZM328,16h16V64H328Zm40,96H304V80h64Z"></path><path d="M168,96a8,8,0,0,0,0-16h-8a40.045,40.045,0,0,0-40,40V448a48,48,0,0,1-96,0V304a8,8,0,0,0-16,0V448a64,64,0,0,0,128,0V120a24.027,24.027,0,0,1,24-24Z"></path><path d="M447.289,220.719a7.951,7.951,0,0,0-2.887-3.4C357.1,117.488,192,179.352,192,312a143.7,143.7,0,0,0,49.318,108.4,7.949,7.949,0,0,0,3.4,2.886C338.151,500.063,480,433.281,480,312A143.333,143.333,0,0,0,447.289,220.719ZM208,312c0-115.017,141.289-171.768,220.778-88.093l-53.5,53.5-8.485-8.485,11.314-11.314c5.616-5.615-.4-12.126-3.724-25.158a8,8,0,0,0-15.18,5.061L363.3,249.79l-8.809,8.809a24.025,24.025,0,0,0-27.293,4.665c-8.165-6.8-14.486-19.121-31.2-20.547V225.373a8,8,0,0,0-16,0v20.084A31.844,31.844,0,0,0,267.206,256H248a8,8,0,0,0,0,16h13.381c-1.651,20.6,14.849,29.144,20.559,36.52a24,24,0,0,0-4.693,27.32l-8.781,8.781-12.279-4.093a8,8,0,0,0-5.06,15.18l16.971,5.656c7.455,2.485,10.708-5.748,19.5-13.246l8.485,8.485-48.175,48.175A127.651,127.651,0,0,1,208,312Zm85.255,7.834,5.657-5.657,39.6-39.6a8.011,8.011,0,0,1,11.314,0l14.142,14.142L307.4,345.289c-12.43-13.317-16.485-14.286-16.485-19.8A7.947,7.947,0,0,1,293.255,319.834Zm-16-45.255c0-14.257,17.321-21.306,27.313-11.313l11.314,11.312-22.628,22.628C285.288,288.067,277.255,284.678,277.255,274.579Zm98.024,25.456c4.1,5.3,20.2,14.811,20.2,36.77a39.737,39.737,0,0,1-11.715,28.283h0a40.045,40.045,0,0,1-56.568,0l-8.485-8.485ZM260.223,415.091,307.4,367.917c7.25,7.081,9.4,9.877,14.552,13.731-7.905,9.214-16.149,12.435-13.657,19.912l5.657,16.97a8,8,0,0,0,15.18-5.06l-4.094-12.28,11.646-11.646a56.057,56.057,0,0,0,58.4-13.142h0a56.068,56.068,0,0,0,13.142-58.4l11.645-11.647,12.28,4.094a8,8,0,1,0,5.06-15.18c-13.008-3.316-19.533-9.343-25.157-3.724l-11.724,11.724c-3.856-5.15-6.646-7.3-13.731-14.552l52.5-52.5A127.314,127.314,0,0,1,464,312C464,417.208,343.869,476.74,260.223,415.091Z"></path><circle cx="96" cy="168" r="8"></circle><circle cx="16" cy="272" r="8"></circle><circle cx="472" cy="160" r="8"></circle><circle cx="504" cy="304" r="8"></circle><circle cx="200" cy="464" r="8"></circle><circle cx="472" cy="464" r="8"></circle><path d="M8,240a8,8,0,0,0,16,0V208H40V448a32,32,0,0,0,64,0V200a8,8,0,0,0-16,0V448a16,16,0,0,1-32,0V208a8,8,0,0,0,8-8V72a8,8,0,0,0-8-8V24A24,24,0,0,0,8,24V64a8,8,0,0,0-8,8V200a8,8,0,0,0,8,8ZM24,24a8,8,0,0,1,16,0V64H24ZM16,80H48V192H16Z"></path></g></g></svg> 