<?xml version="1.0" encoding="UTF-8"?> <svg xmlns="http://www.w3.org/2000/svg" width="24" height="24" viewBox="0 0 24 24"><g fill="#FFF" fill-rule="evenodd" stroke="#808D8B" transform="translate(2 5)"><path d="M3.047 10.929H17.425a.929.929 0 0 0 .907-.728l.604-2.716a2.357 2.357 0 0 0-1.624-2.77L16.3 4.413l-.069-.276-.462-1.85A2.357 2.357 0 0 0 13.483.5H4.118a.929.929 0 0 0-.921.813L2.125 9.885a.929.929 0 0 0 .922 1.044z"></path><circle cx="5.714" cy="11.429" r="2.357"></circle><circle cx="15.714" cy="11.429" r="2.357"></circle><rect width="6.143" height="1" x=".5" y="3.357" rx=".5"></rect><path stroke-linecap="round" stroke-linejoin="round" d="M17.143 5h-6.286l.714-4.286"></path><rect width="4.714" height="1" x=".5" y="6.214" rx=".5"></rect></g></svg> 