<?xml version="1.0" encoding="UTF-8"?> <svg xmlns="http://www.w3.org/2000/svg" width="24" height="24" viewBox="0 0 24 24"><g fill="none" fill-rule="evenodd" stroke="#808D8B"><path fill="#FFF" d="M13.412 16.238zm0 0v-3.945h3.137v1.58a.5.5 0 0 0 .882.323l3.33-3.936a.5.5 0 0 0 0-.646l-3.33-3.937a.5.5 0 0 0-.882.323v1.58h-6.081a.5.5 0 0 0-.5.5l-.001 3.943H6.83v-1.579a.5.5 0 0 0-.882-.322l-3.33 3.937a.5.5 0 0 0 0 .646l3.33 3.936a.5.5 0 0 0 .882-.323v-1.58h6.081a.5.5 0 0 0 .5-.5z"></path><path d="M6.222 12.159h10.943"></path></g></svg> 