<?xml version="1.0" encoding="UTF-8"?> <svg xmlns="http://www.w3.org/2000/svg" width="77px" height="75px" viewBox="0 0 77 75" version="1.1"><g id="Page-1" stroke="none" stroke-width="1" fill="none" fill-rule="evenodd"><g id="Nova_Poshta_2014_logo" fill="#ED1C24"><path d="M60.9240219,22.204815 C61.1539467,22.1325259 61.4564793,22.2771042 61.759012,22.6746946 C61.759012,22.6746946 61.759012,22.6746946 75.4334867,35.9999962 C76.2321728,36.7951769 76.2321728,37.9999962 75.4334867,38.5903577 C75.4334867,38.5903577 75.4334867,38.5903577 61.759012,52.1204786 C61.4564793,52.5180689 61.1539467,52.6144545 60.9240219,52.4939725 C60.6940971,52.3734906 60.5488814,52.024093 60.5488814,51.5180689 L60.5488814,23.0722849 C60.5488814,22.578309 60.6940971,22.2771042 60.9240219,22.204815 Z" id="path3461"></path><path d="M37.5321986,-2.97530105e-06 L38.5003031,-2.97530105e-06 L39.4321036,0.385539205 C39.4321036,0.385539205 39.4321036,0.385539205 53.5059217,14.3132485 C54.110987,15.1084293 53.9052648,15.7108389 52.9008564,15.7108389 C52.9008564,15.7108389 52.9008564,15.7108389 47.0680273,15.7108389 C46.0636189,15.7108389 45.2649328,16.5060197 45.2649328,17.5060197 C45.2649328,17.5060197 45.2649328,17.5060197 45.2649328,27.8433694 C45.2649328,28.8433694 44.4541453,29.6385502 43.2440148,29.6385502 C43.2440148,29.6385502 43.2440148,29.6385502 32.9942091,29.6385502 C31.9898008,29.6385502 31.1790133,28.8433694 31.1790133,27.8433694 C31.1790133,27.8433694 31.1790133,27.8433694 31.1790133,17.5060197 C31.1790133,16.5060197 30.3803271,15.7108389 29.3638175,15.7108389 L23.1316452,15.7108389 C22.1272369,15.7108389 21.9215147,15.1084293 22.52658,14.3132485 C22.52658,14.3132485 22.52658,14.3132485 36.6124994,0.385539205 L37.5321986,-2.97530105e-06 L37.5321986,-2.97530105e-06 Z" id="path3463"></path><path d="M15.4836202,21.9036102 C15.7377476,22.0240921 15.8950646,22.3734897 15.8950646,22.8795138 L15.8950646,51.9156593 C15.8950646,52.4216834 15.7377476,52.7228882 15.4836202,52.8192738 C15.2415941,52.9156593 14.8906563,52.8192738 14.4792119,52.5180689 C14.4792119,52.5180689 14.4792119,52.5180689 0.599014616,38.5903577 C-0.199671539,37.9999962 -0.199671539,36.7951769 0.599014616,35.9999962 C0.599014616,35.9999962 0.599014616,35.9999962 14.4792119,22.2771042 C14.8906563,21.8795138 15.2415941,21.7831283 15.4836202,21.9036102 Z" id="path3465"></path><path d="M32.9942091,44.7590326 C32.9942091,44.7590326 32.9942091,44.7590326 43.2440148,44.7590326 C44.4541453,44.7590326 45.2649328,45.5542133 45.2649328,46.5542133 C45.2649328,46.5542133 45.2649328,46.5542133 45.2649328,57.4939727 C45.2649328,58.6867438 46.0636189,59.4819246 47.0680273,59.4819246 L52.5015134,59.4819246 C53.5059217,59.4819246 53.9052648,60.072286 53.1065786,60.6746957 C53.1065786,60.6746957 53.1065786,60.6746957 39.4321036,74.3975876 C39.0206592,74.795178 38.5245057,74.9999973 38.0162508,74.9999973 C37.5200973,74.9999973 37.0118425,74.795178 36.6124994,74.3975876 C36.6124994,74.3975876 36.6124994,74.3975876 22.9380243,60.6746957 C22.1272369,60.072286 22.52658,59.4819246 23.5309883,59.4819246 C23.5309883,59.4819246 23.5309883,59.4819246 29.3638175,59.4819246 C30.3803271,59.4819246 31.1790133,58.6867438 31.1790133,57.4939727 C31.1790133,57.4939727 31.1790133,57.4939727 31.1790133,46.5542133 C31.1790133,45.5542133 31.9898008,44.7590326 32.9942091,44.7590326 L32.9942091,44.7590326 Z" id="path3467"></path></g></g></svg> 