<?xml version="1.0" encoding="UTF-8"?> <svg xmlns="http://www.w3.org/2000/svg" data-name="Calque 1" width="7.76cm" height="1.38cm" viewBox="0 0 220 39.16"><defs><clipPath id="a"><path fill="none" d="M0 0h220v29.41H0z"></path></clipPath></defs><title>logo</title><path d="M11.86 26.79v-7.33c0-5.1 1.39-6.79 4.65-6.79 2.46 0 3.43 1.83 3.43 4.77v9.35H29v-7.37c0-4.05.38-6.75 4.29-6.75 2.35 0 3.79 1.59 3.79 4.29v9.83h9.1V16.72c0-4.77-1-10.79-9.79-10.79a10.56 10.56 0 0 0-8.67 4c-1.5-3-4.6-4-8.08-4a9.49 9.49 0 0 0-8 4.14h-.11V6.65H2.76v20.14zM90.58 21.77c1.61.34 4.45.73 4.45 2.65 0 1.29-1.06 2-2.29 2.37h10.68a7.73 7.73 0 0 0 .7-3.33c0-2.07-1.44-5.73-7.06-6.74-4.18-.82-10.28-1.25-10.28-3.61 0-1.74 2.41-1.88 3.91-1.88a5.91 5.91 0 0 1 2.89.62A2.3 2.3 0 0 1 94.76 14h8.4c-.32-6.5-6.69-8.09-12.79-8.09-5.46 0-12.68 1.64-12.68 7.66 0 6.74 7.17 6.88 12.89 8.18M88.71 26.79a4.8 4.8 0 0 1-1.34-.58 3.28 3.28 0 0 1-1.5-2.8H77.2a8.71 8.71 0 0 0 .8 3.38z" fill="#192458"></path><path d="M58.33 26.79a3.92 3.92 0 0 1-1.53-3.19 4.28 4.28 0 0 1 .13-.81 3.12 3.12 0 0 1 .3-.73v-.05c1.94-3.54 9.38-4.45 9.38-4.45s1 7.57-1.62 9.26z" fill="#ff9524"></path><path d="M75.44 25.24V14.31c0-7.08-6.37-8.38-12.95-8.38a20.05 20.05 0 0 0-8.83 1.73 7.6 7.6 0 0 0-4.34 6.7h8.51c.43-2.12 2-3.13 4.55-3.13 1.74 0 4 .63 4.35 2.23.2 1.11-.54 1.56-2.51 2s-16.34.52-16 9.36a7.73 7.73 0 0 0 .24 2h9.89a3.92 3.92 0 0 1-1.55-3.22 4.28 4.28 0 0 1 .13-.81 3.12 3.12 0 0 1 .3-.73v-.05c1.94-3.54 9.38-4.45 9.38-4.45s1 7.57-1.62 9.26h10.46v-1.55" fill="#192458"></path><path d="M60.1 26.8H62a9.3 9.3 0 0 1 3.47-7.8 10.69 10.69 0 0 0-5.37 7.8" fill="#fff"></path><path d="M110.79 16.6a8.22 8.22 0 0 0 2 1.14 19.35 19.35 0 0 0 2.5.79l3.5.77a17.16 17.16 0 0 1 1.77.51 6.86 6.86 0 0 1 1.54.72 3.44 3.44 0 0 1 1 1 2.89 2.89 0 0 1 .38 1.53 3 3 0 0 1-.55 1.82 4.48 4.48 0 0 1-1.42 1.24 6.42 6.42 0 0 1-1.61.63h5.33a7 7 0 0 0 .53-.69 5.69 5.69 0 0 0 .86-3.17 5.55 5.55 0 0 0-.59-2.61 6 6 0 0 0-1.5-1.85 7.81 7.81 0 0 0-2.09-1.2 10.25 10.25 0 0 0-2.35-.63l-3.63-.81c-.44-.11-.94-.26-1.49-.44a7.34 7.34 0 0 1-1.47-.68 3.75 3.75 0 0 1-1.09-1 2.23 2.23 0 0 1-.42-1.39 3 3 0 0 1 .44-1.67 3.52 3.52 0 0 1 1.19-1.11 5.62 5.62 0 0 1 1.65-.61 8.45 8.45 0 0 1 1.79-.19 8.35 8.35 0 0 1 2.16.27 5.27 5.27 0 0 1 1.77.84 4.24 4.24 0 0 1 1.21 1.44 4.86 4.86 0 0 1 .5 2.07v.2h3.14v-.22a8.14 8.14 0 0 0-.76-3.19 6.58 6.58 0 0 0-1.81-2.29 7.43 7.43 0 0 0-2.62-1.36 11.31 11.31 0 0 0-3.2-.43 13.56 13.56 0 0 0-3 .34 9.76 9.76 0 0 0-2.76 1.09 6.16 6.16 0 0 0-2 2 5.45 5.45 0 0 0-.79 3 5.5 5.5 0 0 0 .5 2.46 4.9 4.9 0 0 0 1.38 1.69M109.93 26.79h5.5a6.39 6.39 0 0 1-2.23-1.06 5.09 5.09 0 0 1-1.93-4v-.19h-3.14v.22a8.9 8.9 0 0 0 1.8 5M149.36 21.45h-3.15v.16a7.86 7.86 0 0 1-2.27 4 5.42 5.42 0 0 1-2.28 1.2h5.23a11.49 11.49 0 0 0 2.45-5.09zM131.5 26.19a7.34 7.34 0 0 0 .51.6h5.3a5.09 5.09 0 0 1-1.17-.5 7.13 7.13 0 0 1-2.23-2 8 8 0 0 1-1.29-2.72 11.71 11.71 0 0 1-.4-2.74h17.17v-.2a17.66 17.66 0 0 0-.43-4.59 11.87 11.87 0 0 0-1.74-4 9.36 9.36 0 0 0-3.17-2.85 9.52 9.52 0 0 0-4.68-1.09 10.05 10.05 0 0 0-4.67 1 9.27 9.27 0 0 0-3.2 2.7 11.65 11.65 0 0 0-1.83 3.8 16.14 16.14 0 0 0-.59 4.32 16.92 16.92 0 0 0 .59 4.5 11 11 0 0 0 1.83 3.78m1.42-12.66a8.49 8.49 0 0 1 1.41-2.46 6.8 6.8 0 0 1 2.14-1.69 6.29 6.29 0 0 1 2.9-.64 6.12 6.12 0 0 1 2.84.64 6.72 6.72 0 0 1 2.15 1.69 8.14 8.14 0 0 1 1.37 2.43 9.58 9.58 0 0 1 .52 2.67h-14a11.65 11.65 0 0 1 .68-2.64M171.82 21.45h-3.15v.16a7.86 7.86 0 0 1-2.27 4 5.48 5.48 0 0 1-2.28 1.2h5.23a11.49 11.49 0 0 0 2.45-5.09zM154 26.19a7.22 7.22 0 0 0 .5.6h5.31a5.17 5.17 0 0 1-1.18-.5 7.36 7.36 0 0 1-2.23-2 8 8 0 0 1-1.28-2.72 11.21 11.21 0 0 1-.4-2.74h17.16v-.2a17.24 17.24 0 0 0-.44-4.59 11.68 11.68 0 0 0-1.74-4 9.33 9.33 0 0 0-3.16-2.85 9.56 9.56 0 0 0-4.69-1.09 10 10 0 0 0-4.66 1A9.4 9.4 0 0 0 154 9.79a11.75 11.75 0 0 0-1.83 3.8 16.14 16.14 0 0 0-.59 4.32 16.92 16.92 0 0 0 .59 4.5 11.19 11.19 0 0 0 1.83 3.78m1.41-12.66a8.52 8.52 0 0 1 1.42-2.46 6.58 6.58 0 0 1 2.14-1.69 6.24 6.24 0 0 1 2.89-.64 6.13 6.13 0 0 1 2.85.64 6.58 6.58 0 0 1 2.14 1.69 7.73 7.73 0 0 1 1.37 2.43 9.23 9.23 0 0 1 .52 2.67h-14a12.18 12.18 0 0 1 .67-2.64M176.67 26.2c.17.2.34.4.52.59h5.19a5.38 5.38 0 0 1-1.2-.52 6.87 6.87 0 0 1-2.2-2.09 9 9 0 0 1-1.27-2.93 13.81 13.81 0 0 1 0-6.68 9.16 9.16 0 0 1 1.29-2.94 7 7 0 0 1 2.2-2.09 6.21 6.21 0 0 1 3.23-.8 7.21 7.21 0 0 1 3.56.81 7 7 0 0 1 2.35 2.08 8.81 8.81 0 0 1 1.31 2.94 14.14 14.14 0 0 1 0 6.68 8.67 8.67 0 0 1-1.31 2.93 7.09 7.09 0 0 1-2.34 2.09 6 6 0 0 1-1.32.52h4.62a6.51 6.51 0 0 0 1-1.33v1.33h2.92V.13H192v10.15a6.9 6.9 0 0 0-.95-1.42 8.27 8.27 0 0 0-1.89-1.55 8.84 8.84 0 0 0-2.29-.94 10.41 10.41 0 0 0-2.49-.3 10 10 0 0 0-4.53 1 9.35 9.35 0 0 0-3.21 2.59 10.92 10.92 0 0 0-1.89 3.78 16.71 16.71 0 0 0 0 9 11.1 11.1 0 0 0 1.89 3.78M201.35 16.6a8.22 8.22 0 0 0 2 1.14 19.35 19.35 0 0 0 2.5.79l3.5.77a18.1 18.1 0 0 1 1.78.51 7 7 0 0 1 1.53.72 3.23 3.23 0 0 1 1 1 2.89 2.89 0 0 1 .38 1.53 3 3 0 0 1-.54 1.82 4.42 4.42 0 0 1-1.43 1.24 6.42 6.42 0 0 1-1.61.63h5.34c.19-.22.36-.45.53-.69a5.77 5.77 0 0 0 .85-3.17 5.55 5.55 0 0 0-.59-2.61 5.9 5.9 0 0 0-1.5-1.85 7.66 7.66 0 0 0-2.09-1.2 10.17 10.17 0 0 0-2.34-.63l-3.63-.81c-.45-.11-1-.26-1.5-.44a7.34 7.34 0 0 1-1.47-.68 3.88 3.88 0 0 1-1.09-1 2.29 2.29 0 0 1-.41-1.39 3 3 0 0 1 .44-1.67 3.49 3.49 0 0 1 1.18-1.11 5.72 5.72 0 0 1 1.65-.61 8.54 8.54 0 0 1 1.8-.19 8.33 8.33 0 0 1 2.15.27 5.27 5.27 0 0 1 1.77.84 4.26 4.26 0 0 1 1.22 1.44 4.86 4.86 0 0 1 .49 2.07v.2h3.14v-.22a8.14 8.14 0 0 0-.75-3.19 6.82 6.82 0 0 0-1.81-2.29 7.57 7.57 0 0 0-2.63-1.36 11.28 11.28 0 0 0-3.19-.43 13.49 13.49 0 0 0-3 .34 9.71 9.71 0 0 0-2.72 1.13 6 6 0 0 0-2 2 5.36 5.36 0 0 0-.79 3 5.5 5.5 0 0 0 .49 2.46 5 5 0 0 0 1.38 1.69M200.49 26.79H206a6.34 6.34 0 0 1-2.22-1.06 5.09 5.09 0 0 1-1.93-4v-.19h-3.14v.22a8.9 8.9 0 0 0 1.79 5" fill="#ff9524"></path><path d="M77.23 36.82a2.13 2.13 0 0 1-2.39 2.34c-1.56 0-2.49-.72-2.49-2.34V33h.81v3.87a1.51 1.51 0 0 0 1.68 1.66 1.46 1.46 0 0 0 1.58-1.66V33h.81zM78.73 32.95h.86l3.19 4.92h.02v-4.92h.77v6.07h-.89l-3.17-4.87h-.02v4.87h-.76v-6.07zM85.12 32.95h.81v6.07h-.81zM88.88 33.63h-2.02v-.68h4.85v.68h-2.02v5.39h-.81v-5.39zM92.6 32.95h4.19v.68H93.4v1.93h3.16v.68H93.4v2.1h3.41v.68H92.6v-6.07zM98 33h2.09a2.58 2.58 0 0 1 2.91 2.84c0 2-.89 3.18-2.91 3.18H98zm.81 5.39h1.34c.56 0 2-.15 2-2.39 0-1.45-.53-2.32-2-2.32h-1.34zM108.16 33.63h-2.03v-.68h4.86v.68h-2.03v5.39h-.8v-5.39zM114.44 32.8a2.92 2.92 0 0 1 2.91 3.2 2.92 2.92 0 1 1-5.82 0 2.92 2.92 0 0 1 2.91-3.18m0 5.68c1.48 0 2.1-1.27 2.1-2.5s-.62-2.5-2.1-2.5-2.1 1.28-2.1 2.5.62 2.5 2.1 2.5M125.66 38.26a2.35 2.35 0 0 1-1.94.9 2.91 2.91 0 0 1-2.9-3.06c0-1.77 1-3.3 2.9-3.3a2.36 2.36 0 0 1 2.61 2h-.81a1.64 1.64 0 0 0-1.8-1.34c-1.48 0-2.09 1.28-2.09 2.58a2.18 2.18 0 0 0 2.09 2.42 1.82 1.82 0 0 0 1.94-2h-1.94v-.68h2.67V39h-.51zM127.79 33h2.86c1.13 0 1.84.62 1.84 1.59a1.46 1.46 0 0 1-1.05 1.54c.7.14.85.66.91 1.25a3.11 3.11 0 0 0 .35 1.62h-.9c-.23-.25-.1-.9-.22-1.5s-.23-1.09-1-1.09h-2V39h-.81zm2.49 2.79c.76 0 1.4-.19 1.4-1.08a1 1 0 0 0-1.08-1h-2v2.11zM136.39 32.8a2.92 2.92 0 0 1 2.91 3.2 2.92 2.92 0 1 1-5.81 0 2.91 2.91 0 0 1 2.9-3.18m0 5.68c1.48 0 2.1-1.27 2.1-2.5s-.62-2.5-2.1-2.5-2.1 1.28-2.1 2.5.62 2.5 2.1 2.5M145.99 39.02h-.85l-1.38-5.1h-.02l-1.4 5.1h-.84l-1.56-6.07h.82l1.19 5.05h.02l1.36-5.05h.88l1.34 5.05h.02l1.23-5.05h.81l-1.62 6.07z" fill="#192458"></path><path fill="none" d="M2.76.13h214.48v29.28H2.76z"></path><g clip-path="url(#a)"><text transform="translate(148.29 35.26)" font-size="3.175" fill="#192458" font-family="HelveticaNeueLTStd-Roman,HelveticaNeueLTStd Roman">*</text></g></svg> 