<?xml version="1.0" encoding="UTF-8"?> <svg xmlns="http://www.w3.org/2000/svg" height="512" viewBox="0 0 128 128" width="512"><g><path d="m93.244 45.6a1.733 1.733 0 0 0 -2.136-1.544c.009-4.118-.146-8.37-.483-12.692a1.751 1.751 0 0 0 -2.434-1.473c-1.7.729-3.313 1.517-4.827 2.345-3.536-16.6-10.818-27.486-19.364-27.486s-15.817 10.87-19.357 27.49c-1.516-.83-3.128-1.619-4.834-2.349a1.751 1.751 0 0 0 -2.434 1.473c-.337 4.322-.492 8.574-.483 12.692a1.734 1.734 0 0 0 -1.318.209 1.752 1.752 0 0 0 -.818 1.335c-2.2 25.568 2.041 46.225 11.631 56.674a23.487 23.487 0 0 0 9.863 6.555v12.671a1.751 1.751 0 0 0 1.75 1.75h12a1.751 1.751 0 0 0 1.75-1.75v-12.671a23.481 23.481 0 0 0 9.863-6.555c9.587-10.449 13.829-31.106 11.631-56.674zm-5.933-11.466c.243 3.875.335 7.677.29 11.356q-1.164.521-2.259 1.064c-.266-3.738-.7-7.313-1.277-10.686 1.035-.598 2.102-1.182 3.246-1.734zm-23.311-25.884c7.03 0 13.4 11.09 16.377 26.948.006.043.014.085.023.128a104.31 104.31 0 0 1 1.553 13.074c-10.916 6.474-15.786 15.2-17.953 26.677-2.167-11.472-7.037-20.2-17.951-26.679 1.306-22.598 9.108-40.148 17.951-40.148zm-23.311 25.884c1.147.553 2.22 1.138 3.253 1.738-.58 3.371-1.011 6.946-1.279 10.685q-1.095-.546-2.264-1.067c-.045-3.679.047-7.481.29-11.356zm8.276 65.774c-8.508-9.271-12.536-28.461-10.907-51.634 23.725 10.171 24.183 27.588 24.192 58.219a19.618 19.618 0 0 1 -13.285-6.585zm19.285 19.842h-8.5v-10.045a25.618 25.618 0 0 0 8.5 0zm10.785-19.842a19.618 19.618 0 0 1 -13.285 6.585c0-.9 0-1.784 0-2.661v-.022-.022c.054-28.957 1.172-45.646 24.189-55.514 1.632 23.173-2.396 42.363-10.904 51.634z"></path><path d="m80.437 90.166a1.751 1.751 0 0 0 -2.37.713 24.486 24.486 0 0 1 -3.453 4.972 1.75 1.75 0 1 0 2.579 2.366 27.964 27.964 0 0 0 3.957-5.681 1.751 1.751 0 0 0 -.713-2.37z"></path><path d="m54.354 27.687h3a1.75 1.75 0 0 0 0-3.5h-3a1.75 1.75 0 0 0 0 3.5z"></path><path d="m62.5 32.624h3a1.75 1.75 0 0 0 0-3.5h-3a1.75 1.75 0 1 0 0 3.5z"></path><path d="m62.5 43.624h3a1.75 1.75 0 0 0 0-3.5h-3a1.75 1.75 0 0 0 0 3.5z"></path><path d="m62.5 54.624h3a1.75 1.75 0 0 0 0-3.5h-3a1.75 1.75 0 0 0 0 3.5z"></path><path d="m55.417 45.749a1.75 1.75 0 0 0 0 3.5h3a1.75 1.75 0 0 0 0-3.5z"></path><path d="m62.5 21.624h3a1.75 1.75 0 0 0 0-3.5h-3a1.75 1.75 0 0 0 0 3.5z"></path><path d="m52.854 38.624h3a1.75 1.75 0 0 0 0-3.5h-3a1.75 1.75 0 0 0 0 3.5z"></path><path d="m70.646 27.687h3a1.75 1.75 0 0 0 0-3.5h-3a1.75 1.75 0 0 0 0 3.5z"></path><path d="m69.583 49.249h3a1.75 1.75 0 0 0 0-3.5h-3a1.75 1.75 0 0 0 0 3.5z"></path><path d="m72.146 35.124a1.75 1.75 0 0 0 0 3.5h3a1.75 1.75 0 0 0 0-3.5z"></path></g></svg> 