<?xml version="1.0" encoding="UTF-8"?>
<svg width="320px" height="84px" viewBox="0 0 320 84" version="1.1" xmlns="http://www.w3.org/2000/svg" xmlns:xlink="http://www.w3.org/1999/xlink">
    <title>Агропошта</title>
    <desc>Логотип</desc>
            <g id="Agroposhta-logo" stroke="none" stroke-width="1" fill="none" fill-rule="evenodd">
                <path d="M102.96953,62 L99,62 L104.628438,21 L111.678798,21 L117.307237,62 L113.396953,62 L111.619551,49.9342857 L104.687685,49.9342857 L102.96953,62 Z M108.301735,24.8071429 L108.005501,24.8071429 L105.102412,46.3614286 L111.204824,46.3614286 L108.301735,24.8071429 Z M130.062209,62 L126.151926,62 L126.151926,21 L138.060516,21 L138.060516,24.8657143 L130.062209,24.8657143 L130.062209,62 Z M150.223022,24.8657143 L150.223022,41.6757143 L154.725772,41.6757143 C155.910707,41.6757143 156.621667,40.6214286 156.621667,39.5671429 L156.621667,26.5057143 C156.621667,25.6271429 155.85146,24.8657143 154.962759,24.8657143 L150.223022,24.8657143 Z M146.312738,62 L146.312738,21 L154.962759,21 C157.984342,21 160.531951,23.46 160.531951,26.5057143 L160.531951,39.86 C160.531951,42.8471429 158.458316,45.3071429 155.31824,45.3071429 L150.223022,45.3071429 L150.223022,62 L146.312738,62 Z M181.403724,26.5057143 C181.403724,25.6271429 180.633517,24.8657143 179.744816,24.8657143 L175.834532,24.8657143 C174.945832,24.8657143 174.175624,25.6271429 174.175624,26.5057143 L174.175624,56.4942857 C174.175624,57.4314286 174.945832,58.1342857 175.834532,58.1342857 L179.744816,58.1342857 C180.633517,58.1342857 181.403724,57.4314286 181.403724,56.4942857 L181.403724,26.5057143 Z M185.314008,26.5057143 L185.314008,56.4942857 C185.314008,59.54 182.825645,62 179.744816,62 L175.834532,62 C172.81295,62 170.265341,59.54 170.265341,56.4942857 L170.265341,26.5057143 C170.265341,23.46 172.81295,21 175.834532,21 L179.744816,21 C182.825645,21 185.314008,23.46 185.314008,26.5057143 Z M206.304274,62 L206.304274,24.8657143 L199.253915,24.8657143 L199.253915,62 L195.343631,62 L195.343631,21 L210.214558,21 L210.214558,62 L206.304274,62 Z M231.382565,26.5057143 C231.382565,25.6271429 230.612357,24.8657143 229.723656,24.8657143 L225.813373,24.8657143 C224.924672,24.8657143 224.154465,25.6271429 224.154465,26.5057143 L224.154465,56.4942857 C224.154465,57.4314286 224.924672,58.1342857 225.813373,58.1342857 L229.723656,58.1342857 C230.612357,58.1342857 231.382565,57.4314286 231.382565,56.4942857 L231.382565,26.5057143 Z M235.292848,26.5057143 L235.292848,56.4942857 C235.292848,59.54 232.804486,62 229.723656,62 L225.813373,62 C222.79179,62 220.244181,59.54 220.244181,56.4942857 L220.244181,26.5057143 C220.244181,23.46 222.79179,21 225.813373,21 L229.723656,21 C232.804486,21 235.292848,23.46 235.292848,26.5057143 Z M249.232755,21 L249.232755,58.1342857 L256.342361,58.1342857 L256.342361,21 L260.252645,21 L260.252645,58.1342857 L267.362251,58.1342857 L267.362251,21 L271.272535,21 L271.272535,62 L245.322471,62 L245.322471,21 L249.232755,21 Z M293.92171,24.8657143 L289.122725,24.8657143 L289.122725,62 L285.212442,62 L285.212442,24.8657143 L280.413457,24.8657143 L280.413457,21 L293.92171,21 L293.92171,24.8657143 Z M304.662294,62 L300.692763,62 L306.321202,21 L313.371562,21 L319,62 L315.089716,62 L313.312315,49.9342857 L306.380449,49.9342857 L304.662294,62 Z M309.994499,24.8071429 L309.698265,24.8071429 L306.795176,46.3614286 L312.897588,46.3614286 L309.994499,24.8071429 Z" id="logo-text" stroke="#40BF40" stroke-width="1.5" fill="#40BF40" fill-rule="nonzero"></path>
                <g id="logo-icon">
                    <path d="M70.8894391,72.4861976 C63.9085806,79.1036367 54.6565727,83.3489006 44.4241976,83.9312072 C46.5204508,82.2832773 48.8132342,80.7399389 51.3025541,79.3011862 C57.9698842,75.3984743 64.4987852,73.1268314 70.8894431,72.4861939 Z" id="bottom-1" fill="#40BF40"></path>
                    <path d="M33.3090028,83.0997 C27.954792,81.9731334 22.9761598,79.8267309 18.5857555,76.8731418 C26.5793394,70.4827626 36.0093659,66.3891303 46.8760881,64.592131 C57.3903124,62.7105158 67.1884656,63.2750225 76.2708379,66.2856683 C75.2590933,67.7108124 74.1606833,69.0701176 72.9832907,70.3559009 C71.3307039,70.1786941 69.7274425,70.1501537 68.1734737,70.2702783 C59.7703816,70.8526553 51.8020517,72.9637402 44.2682449,76.6035964 C40.3639876,78.4018584 36.7109167,80.5672183 33.3089997,83.0996994 Z" id="bottom-2" fill="#40BF40"></path>
                    <path d="M11.8016522,71.1901175 C8.50709609,67.7824882 5.78406647,63.8188221 3.78702505,59.4535807 C29.3559891,47.6498615 54.4267357,48.2072752 79,61.1258308 L77.6382598,64.2348322 C77.5647718,64.352371 77.4907185,64.4695202 77.4161036,64.5862758 L76.8223496,64.3885834 C70.2893656,62.2134041 63.5387168,60.9808211 56.5702006,60.6907972 C48.5854424,60.1107494 41.0363297,60.6182836 33.9226361,62.213415 C25.7010759,63.9353257 18.3274754,66.9275339 11.8016522,71.1901175 Z" id="bottom-3" fill="#40BF40"></path>
                    <path d="M41.7329764,33.5415807 C44.3470099,33.2473273 46.6342549,33.9461687 48.59478,35.6381258 C50.5553051,37.3300829 51.6807749,39.5001692 51.971223,42.1484499 C51.971223,43.1783368 51.8260011,44.2082083 51.535553,45.2380952 C45.5813656,43.9139549 39.4820456,43.3254569 33.2374101,43.4725836 L33.2374101,43.0312057 C33.2374101,40.5300517 34.0361305,38.3599654 35.6335954,36.5208816 C37.2310604,34.6817978 39.264167,33.6887074 41.7329764,33.5415807 Z" id="top-1" fill="#FFE74D" fill-rule="nonzero"></path>
                    <path d="M67.1047964,49.7619048 C64.3561672,48.6098898 61.4629167,47.6018919 58.424958,46.7378807 C58.7142874,44.8658565 58.7866187,42.9938604 58.641954,41.1218361 C58.2079599,37.0897839 56.435844,33.669791 53.325553,30.8617546 C50.215262,28.0537183 46.5625332,26.721721 42.367257,26.8657229 L40.4142934,26.8657229 C35.9296878,27.2977285 32.3131247,29.3137243 29.5644954,32.9137709 C27.1051956,36.0818119 25.9478954,39.6098047 26.0925601,43.497855 C22.9099367,43.7858587 19.8720237,44.2898577 16.9787298,45.009867 C16.6894004,40.5458092 17.4850443,36.3338179 19.3656853,32.3737666 C21.2463264,28.4137154 23.9587487,25.1377221 27.5030338,22.5456885 C31.0473189,19.953655 35.061704,18.3696582 39.5463096,17.7936508 L42.367257,17.7936508 C48.8771684,17.7936508 54.5190069,19.9176464 59.2929419,24.1657014 C64.0668769,28.4137564 66.8154649,33.7777454 67.5387883,40.2578293 C67.8281177,43.4258703 67.6834532,46.5938638 67.1047964,49.7619048 Z" id="top-2" fill="#FFE74D" fill-rule="nonzero"></path>
                    <path d="M82.5308437,30.8191131 C83.693931,34.7462658 84.1664281,39.2187892 83.9483493,44.2368176 C83.7302704,49.254846 82.894314,53.5091976 81.4404549,57 L81.0042993,56.7818259 C78.6781247,55.327325 76.0612176,53.8728458 73.1534994,52.4183448 C73.880429,49.5093428 74.2438883,46.3822126 74.2438883,43.0368603 C74.3892742,39.2551577 74.0985067,36.0553036 73.3715772,33.4372018 C71.1907885,25.5828964 66.6838929,19.4377219 59.8507551,15.0014939 C53.0176173,10.5652659 45.6030471,8.92897684 37.6068221,10.0925776 C31.7913856,10.8198281 26.5939173,12.9651849 22.0142611,16.5287123 C17.434605,20.0922398 14.0180873,24.5284012 11.7646057,29.8373298 C9.51112409,35.1462584 8.74785951,40.7823652 9.47478906,46.7458193 C6.42168494,47.6185199 3.51401035,48.6366553 0.751678055,49.8002561 C-0.556795138,42.8186514 -0.156989882,35.9825992 1.95110582,29.2918947 C4.05920152,22.6011901 7.62110289,16.8196354 12.6369168,11.9470571 C17.6527307,7.07447881 23.5771177,3.62009078 30.4102555,1.58378939 C37.8249369,-0.452511995 45.1668152,-0.525235953 52.4361108,1.36561533 C59.7054063,3.25646662 66.0295985,6.78357861 71.4088772,11.9470571 C76.7881559,17.1105356 80.495441,23.4011581 82.5308437,30.8191131 Z" id="top-3" fill="#FFE74D" fill-rule="nonzero"></path>
                </g>
            </g>
</svg>