<svg id="Capa_1" enable-background="new 0 0 512 512" height="512" viewBox="0 0 512 512" width="512" xmlns="http://www.w3.org/2000/svg"><g><path d="m507.606 145.814c-5.857-5.857-15.355-5.857-21.213 0l-32.178 32.178c-7.254-6.139-17.61-13.732-30.091-19.674 2.283-1.83 4.5-3.797 6.625-5.922 25.428-25.426 29.041-63.663 29.395-79.329l37.999-37.999c5.858-5.857 5.858-15.355 0-21.213-5.857-5.857-15.355-5.857-21.213 0l-38 38c-15.667.356-53.901 3.967-79.327 29.393-2.129 2.129-4.103 4.35-5.937 6.638-5.938-12.48-13.527-22.844-19.663-30.1l32.181-32.181c5.858-5.857 5.858-15.355 0-21.213-5.857-5.857-15.355-5.857-21.213 0 0 0-42.725 42.759-42.876 42.924-5.216 4.933-27.834 27.698-36.155 58.403-.584-.554-.985-.919-1.119-1.039-5.696-5.102-14.317-5.101-20.013 0-1.361 1.219-28.016 25.469-37.204 59.375-.584-.554-.985-.919-1.119-1.039-5.696-5.1-14.316-5.1-20.013 0-1.361 1.219-28.016 25.469-37.204 59.376-.584-.554-.985-.919-1.119-1.039-5.696-5.1-14.316-5.1-20.013 0-1.646 1.474-40.302 36.607-40.302 81.792 0 30.408 17.499 56.246 29.452 70.354l-112.893 112.894c-5.858 5.857-5.858 15.355 0 21.213 2.929 2.929 6.768 4.394 10.607 4.394s7.678-1.465 10.606-4.394l112.894-112.893c14.108 11.953 39.946 29.452 70.354 29.452 45.184 0 80.318-38.657 81.792-40.303 5.101-5.695 5.101-14.316 0-20.012-.12-.134-.486-.535-1.039-1.119 33.907-9.189 58.157-35.844 59.376-37.205 5.101-5.695 5.101-14.316 0-20.012-.12-.134-.486-.536-1.04-1.12 33.907-9.189 58.157-35.844 59.376-37.205 5.101-5.695 5.101-14.316 0-20.012-.12-.134-.485-.535-1.039-1.119 30.706-8.321 53.471-30.94 58.403-36.155.165-.151 42.924-42.876 42.924-42.876 5.858-5.857 5.858-15.355-.001-21.213zm-78.166-63.286c-1.524 14.018-6.152 34.904-19.903 48.655-13.82 13.82-34.637 18.433-48.624 19.935 1.524-14.018 6.152-34.904 19.903-48.655 13.821-13.821 34.637-18.433 48.624-19.935zm-116.31-2.87c8.834 10.991 20.331 29.032 20.331 48.479 0 19.561-11.477 37.555-20.308 48.505-8.837-10.956-20.31-28.948-20.31-48.505.001-19.545 11.459-37.526 20.287-48.479zm-58.337 58.337c8.833 10.99 20.331 29.031 20.331 48.479 0 19.561-11.477 37.555-20.307 48.505-8.837-10.956-20.31-28.948-20.31-48.505 0-19.545 11.458-37.526 20.286-48.479zm-58.315 58.31c8.837 10.956 20.31 28.948 20.31 48.505 0 19.561-11.477 37.555-20.308 48.505-8.837-10.956-20.31-28.948-20.31-48.505.001-19.561 11.478-37.555 20.308-48.505zm-58.336 58.336c8.837 10.956 20.31 28.948 20.31 48.505 0 19.544-11.458 37.525-20.286 48.478-8.834-10.99-20.331-29.031-20.331-48.478 0-19.56 11.476-37.554 20.307-48.505zm70.712 139.524c-19.561 0-37.555-11.477-48.505-20.308 10.957-8.837 28.949-20.31 48.505-20.31 19.56 0 37.555 11.477 48.505 20.308-10.957 8.837-28.949 20.31-48.505 20.31zm58.336-58.336c-19.561 0-37.555-11.477-48.505-20.308 10.957-8.837 28.949-20.31 48.505-20.31 19.561 0 37.555 11.477 48.505 20.308-10.956 8.837-28.948 20.31-48.505 20.31zm58.336-58.337c-19.561 0-37.555-11.477-48.505-20.308 10.957-8.837 28.948-20.309 48.505-20.309 19.561 0 37.555 11.477 48.505 20.307-10.957 8.837-28.948 20.31-48.505 20.31zm58.337-58.336c-19.561 0-37.555-11.477-48.505-20.308 10.956-8.837 28.948-20.31 48.505-20.31 19.545 0 37.525 11.458 48.479 20.286-10.992 8.835-29.033 20.332-48.479 20.332z"/></g></svg>